<svg width="24" height="20" viewBox="0 0 24 20" fill="none" xmlns="http://www.w3.org/2000/svg">
<path d="M6.76875 2.78467C3.03049 2.78467 0 5.83608 0 9.59984C0 13.3636 3.03071 16.415 6.76875 16.415C10.5068 16.415 13.5375 13.3638 13.5375 9.59984C13.5375 5.83586 10.5072 2.78467 6.76875 2.78467ZM17.5781 3.18389C15.7089 3.18389 14.1939 6.05711 14.1939 9.59996C14.1939 13.1428 15.7092 16.0162 17.5784 16.0162C19.4475 16.0162 20.9628 13.143 20.9628 9.59996H20.9625C20.9625 6.05609 19.4475 3.18389 17.5782 3.18389H17.5781ZM22.8096 3.85218C22.1524 3.85218 21.6195 6.42573 21.6195 9.59996C21.6195 12.7742 22.152 15.3477 22.8096 15.3477C23.4672 15.3477 24 12.7735 24 9.59984C24 6.42551 23.4669 3.85218 22.8097 3.85218H22.8096Z" fill="#858A8B"/>
</svg>
