<svg width="24" height="24" fill="none" xmlns="http://www.w3.org/2000/svg"><path d="M7.777 18.628c0 .094-.108.169-.244.169-.155.014-.263-.061-.263-.169 0-.094.108-.169.244-.169.14-.014.263.061.263.17Zm-1.458-.21c-.033.093.06.2.201.229.122.047.263 0 .29-.094.03-.094-.06-.201-.2-.244-.123-.032-.258.014-.291.108Zm2.072-.08c-.136.032-.23.121-.216.23.014.093.136.154.277.121.136-.033.23-.122.215-.216-.014-.089-.14-.15-.276-.136ZM11.475.374C4.973.375 0 5.311 0 11.813c0 5.198 3.272 9.646 7.945 11.212.6.108.811-.262.811-.567 0-.29-.014-1.894-.014-2.878 0 0-3.281.703-3.97-1.397 0 0-.535-1.364-1.303-1.716 0 0-1.074-.736.075-.722 0 0 1.167.094 1.81 1.21 1.026 1.81 2.746 1.289 3.416.98.108-.75.413-1.27.75-1.58-2.62-.29-5.264-.67-5.264-5.18 0-1.29.356-1.936 1.106-2.76-.121-.306-.52-1.562.122-3.184.98-.304 3.235 1.266 3.235 1.266a11.013 11.013 0 0 1 2.944-.399c.998 0 2.006.136 2.943.399 0 0 2.255-1.575 3.235-1.266.642 1.627.243 2.878.121 3.183.75.83 1.21 1.477 1.21 2.761 0 4.523-2.761 4.884-5.381 5.18.43.37.796 1.073.796 2.175 0 1.58-.014 3.534-.014 3.918 0 .305.216.675.811.568 4.688-1.557 7.866-6.005 7.866-11.203C23.25 5.31 17.977.374 11.475.374ZM4.556 16.542c-.06.047-.047.155.033.244.075.075.183.108.244.047.06-.047.047-.155-.033-.244-.075-.075-.183-.108-.244-.047Zm-.506-.38c-.033.061.014.136.108.183.075.047.169.033.201-.032.033-.061-.014-.136-.107-.183-.094-.028-.17-.014-.202.033Zm1.519 1.67c-.075.06-.047.2.06.29.109.108.244.122.305.047.061-.061.033-.202-.06-.29-.104-.109-.244-.123-.305-.048Zm-.535-.69c-.075.047-.075.169 0 .277.075.108.202.154.263.108.075-.061.075-.183 0-.291-.066-.108-.188-.155-.263-.094Z" fill="#858A8B"/></svg>